<svg width="24" height="24" viewBox="0 0 24 24" fill="none" xmlns="http://www.w3.org/2000/svg">
<path d="M10.0312 5.40625V6.5H13.9688V5.40625C13.9688 5.05078 14.2422 4.75 14.625 4.75C14.9805 4.75 15.2812 5.05078 15.2812 5.40625V6.5H16.375C17.332 6.5 18.125 7.29297 18.125 8.25V8.6875V10V17C18.125 17.9844 17.332 18.75 16.375 18.75H7.625C6.64062 18.75 5.875 17.9844 5.875 17V10V8.6875V8.25C5.875 7.29297 6.64062 6.5 7.625 6.5H8.71875V5.40625C8.71875 5.05078 8.99219 4.75 9.375 4.75C9.73047 4.75 10.0312 5.05078 10.0312 5.40625ZM7.1875 10V17C7.1875 17.2461 7.37891 17.4375 7.625 17.4375H16.375C16.5938 17.4375 16.8125 17.2461 16.8125 17V10H7.1875Z" fill="#262A37"/>
</svg>
