<svg width="24" height="24" viewBox="0 0 24 24" fill="none" xmlns="http://www.w3.org/2000/svg">
    <path d="M15.9375 10C15.9375 7.83984 14.1602 6.0625 12 6.0625C9.8125 6.0625 8.0625 7.83984 8.0625 10C8.0625 10.3555 8.17188 10.875 8.47266 11.5859C8.74609 12.2422 9.15625 13.0078 9.62109 13.7734C10.4141 15.0312 11.3164 16.2344 12 17.1094C12.6562 16.2344 13.5586 15.0312 14.3516 13.7734C14.8164 13.0078 15.2266 12.2422 15.5 11.5859C15.8008 10.875 15.9375 10.3555 15.9375 10ZM17.25 10C17.25 12.4062 14.0508 16.6445 12.6289 18.4219C12.3008 18.832 11.6719 18.832 11.3438 18.4219C9.94922 16.6445 6.75 12.4062 6.75 10C6.75 7.10156 9.10156 4.75 12 4.75C14.8984 4.75 17.25 7.10156 17.25 10ZM12.875 10C12.875 9.53516 12.4648 9.125 12 9.125C11.5078 9.125 11.125 9.53516 11.125 10C11.125 10.4922 11.5078 10.875 12 10.875C12.4648 10.875 12.875 10.4922 12.875 10ZM9.8125 10C9.8125 9.23438 10.2227 8.52344 10.9062 8.11328C11.5625 7.73047 12.4102 7.73047 13.0938 8.11328C13.75 8.52344 14.1875 9.23438 14.1875 10C14.1875 10.793 13.75 11.5039 13.0938 11.9141C12.4102 12.2969 11.5625 12.2969 10.9062 11.9141C10.2227 11.5039 9.8125 10.793 9.8125 10Z" fill="#262A37"/>
</svg>
