<svg width="24" height="24" viewBox="0 0 24 24" fill="none" xmlns="http://www.w3.org/2000/svg">
    <path d="M17.6875 11.75C17.6875 9.72656 16.5938 7.86719 14.8438 6.82812C13.0664 5.81641 10.9062 5.81641 9.15625 6.82812C7.37891 7.86719 6.3125 9.72656 6.3125 11.75C6.3125 13.8008 7.37891 15.6602 9.15625 16.6992C10.9062 17.7109 13.0664 17.7109 14.8438 16.6992C16.5938 15.6602 17.6875 13.8008 17.6875 11.75ZM5 11.75C5 9.26172 6.3125 6.96484 8.5 5.70703C10.6602 4.44922 13.3125 4.44922 15.5 5.70703C17.6602 6.96484 19 9.26172 19 11.75C19 14.2656 17.6602 16.5625 15.5 17.8203C13.3125 19.0781 10.6602 19.0781 8.5 17.8203C6.3125 16.5625 5 14.2656 5 11.75ZM11.3438 8.03125C11.3438 7.67578 11.6172 7.375 12 7.375C12.3555 7.375 12.6562 7.67578 12.6562 8.03125V11.4219L14.9805 12.9531C15.2812 13.1719 15.3633 13.582 15.1719 13.8828C14.9531 14.1836 14.543 14.2656 14.2422 14.0469L11.6172 12.2969C11.4531 12.1875 11.3438 11.9688 11.3438 11.75V8.03125Z" fill="#262A37"/>
</svg>
