<svg xmlns="http://www.w3.org/2000/svg" style="display: none;">
  
  <!-- Send Icon -->
  <symbol id="send" viewBox="0 0 16 16">
    <path d="M1.4375 7.88672L13.6875 0.886719C13.9609 0.722656 14.3438 0.722656 14.6172 0.914062C14.8906 1.10547 15.0273 1.43359 14.9727 1.76172L13.2227 13.1367C13.1406 13.6836 12.5391 14.0391 12.0195 13.8203L8.62891 12.3984L6.93359 14.4492C6.76953 14.6406 6.52344 14.75 6.25 14.75C5.75781 14.75 5.375 14.3672 5.375 13.875V11.0312L1.51953 9.44531C0.863281 9.17188 0.808594 8.24219 1.4375 7.88672ZM2.85938 8.57031L6.22266 9.96484L6.19531 9.9375L12.1836 3.23828L2.85938 8.57031ZM12.0195 12.3984L13.3047 3.94922L7.45312 10.4844L12.0195 12.3984Z" fill="currentColor"/>
  </symbol>
  
  <!-- Calendar Icon -->
  <symbol id="calendar" viewBox="0 0 24 24">
    <path d="M10.0312 5.40625V6.5H13.9688V5.40625C13.9688 5.05078 14.2422 4.75 14.625 4.75C14.9805 4.75 15.2812 5.05078 15.2812 5.40625V6.5H16.375C17.332 6.5 18.125 7.29297 18.125 8.25V8.6875V10V17C18.125 17.9844 17.332 18.75 16.375 18.75H7.625C6.64062 18.75 5.875 17.9844 5.875 17V10V8.6875V8.25C5.875 7.29297 6.64062 6.5 7.625 6.5H8.71875V5.40625C8.71875 5.05078 8.99219 4.75 9.375 4.75C9.73047 4.75 10.0312 5.05078 10.0312 5.40625ZM7.1875 10V17C7.1875 17.2461 7.37891 17.4375 7.625 17.4375H16.375C16.5938 17.4375 16.8125 17.2461 16.8125 17V10H7.1875Z" fill="currentColor"/>
  </symbol>

    <!-- Person Icon -->
  <symbol id="person" viewBox="0 0 24 24">
    <path d="M14.1875 8.25C14.1875 7.48438 13.75 6.77344 13.0938 6.36328C12.4102 5.98047 11.5625 5.98047 10.9062 6.36328C10.2227 6.77344 9.8125 7.48438 9.8125 8.25C9.8125 9.04297 10.2227 9.75391 10.9062 10.1641C11.5625 10.5469 12.4102 10.5469 13.0938 10.1641C13.75 9.75391 14.1875 9.04297 14.1875 8.25ZM8.5 8.25C8.5 7.01953 9.15625 5.87109 10.25 5.24219C11.3164 4.61328 12.6562 4.61328 13.75 5.24219C14.8164 5.87109 15.5 7.01953 15.5 8.25C15.5 9.50781 14.8164 10.6562 13.75 11.2852C12.6562 11.9141 11.3164 11.9141 10.25 11.2852C9.15625 10.6562 8.5 9.50781 8.5 8.25ZM7.21484 17.4375H16.7578C16.5117 15.7148 15.0352 14.375 13.2305 14.375H10.7422C8.9375 14.375 7.46094 15.7148 7.21484 17.4375ZM5.875 17.957C5.875 15.25 8.03516 13.0625 10.7422 13.0625H13.2305C15.9375 13.0625 18.125 15.25 18.125 17.957C18.125 18.3945 17.7422 18.75 17.3047 18.75H6.66797C6.23047 18.75 5.875 18.3945 5.875 17.957Z" fill="currentColor"/>
  </symbol>

    <!-- Time Icon -->
  <symbol id="time" viewBox="0 0 24 24">
    <path d="M17.6875 11.75C17.6875 9.72656 16.5938 7.86719 14.8438 6.82812C13.0664 5.81641 10.9062 5.81641 9.15625 6.82812C7.37891 7.86719 6.3125 9.72656 6.3125 11.75C6.3125 13.8008 7.37891 15.6602 9.15625 16.6992C10.9062 17.7109 13.0664 17.7109 14.8438 16.6992C16.5938 15.6602 17.6875 13.8008 17.6875 11.75ZM5 11.75C5 9.26172 6.3125 6.96484 8.5 5.70703C10.6602 4.44922 13.3125 4.44922 15.5 5.70703C17.6602 6.96484 19 9.26172 19 11.75C19 14.2656 17.6602 16.5625 15.5 17.8203C13.3125 19.0781 10.6602 19.0781 8.5 17.8203C6.3125 16.5625 5 14.2656 5 11.75ZM11.3438 8.03125C11.3438 7.67578 11.6172 7.375 12 7.375C12.3555 7.375 12.6562 7.67578 12.6562 8.03125V11.4219L14.9805 12.9531C15.2812 13.1719 15.3633 13.582 15.1719 13.8828C14.9531 14.1836 14.543 14.2656 14.2422 14.0469L11.6172 12.2969C11.4531 12.1875 11.3438 11.9688 11.3438 11.75V8.03125Z" fill="currentColor"/>
  </symbol>

    <!-- Location Icon -->
  <symbol id="location" viewBox="0 0 24 24">
    <path d="M15.9375 10C15.9375 7.83984 14.1602 6.0625 12 6.0625C9.8125 6.0625 8.0625 7.83984 8.0625 10C8.0625 10.3555 8.17188 10.875 8.47266 11.5859C8.74609 12.2422 9.15625 13.0078 9.62109 13.7734C10.4141 15.0312 11.3164 16.2344 12 17.1094C12.6562 16.2344 13.5586 15.0312 14.3516 13.7734C14.8164 13.0078 15.2266 12.2422 15.5 11.5859C15.8008 10.875 15.9375 10.3555 15.9375 10ZM17.25 10C17.25 12.4062 14.0508 16.6445 12.6289 18.4219C12.3008 18.832 11.6719 18.832 11.3438 18.4219C9.94922 16.6445 6.75 12.4062 6.75 10C6.75 7.10156 9.10156 4.75 12 4.75C14.8984 4.75 17.25 7.10156 17.25 10ZM12.875 10C12.875 9.53516 12.4648 9.125 12 9.125C11.5078 9.125 11.125 9.53516 11.125 10C11.125 10.4922 11.5078 10.875 12 10.875C12.4648 10.875 12.875 10.4922 12.875 10ZM9.8125 10C9.8125 9.23438 10.2227 8.52344 10.9062 8.11328C11.5625 7.73047 12.4102 7.73047 13.0938 8.11328C13.75 8.52344 14.1875 9.23438 14.1875 10C14.1875 10.793 13.75 11.5039 13.0938 11.9141C12.4102 12.2969 11.5625 12.2969 10.9062 11.9141C10.2227 11.5039 9.8125 10.793 9.8125 10Z" fill="currentColor"/>
  </symbol>
  
</svg>
