<svg width="24" height="24" viewBox="0 0 24 24" fill="none" xmlns="http://www.w3.org/2000/svg">
    <path d="M14.1875 8.25C14.1875 7.48438 13.75 6.77344 13.0938 6.36328C12.4102 5.98047 11.5625 5.98047 10.9062 6.36328C10.2227 6.77344 9.8125 7.48438 9.8125 8.25C9.8125 9.04297 10.2227 9.75391 10.9062 10.1641C11.5625 10.5469 12.4102 10.5469 13.0938 10.1641C13.75 9.75391 14.1875 9.04297 14.1875 8.25ZM8.5 8.25C8.5 7.01953 9.15625 5.87109 10.25 5.24219C11.3164 4.61328 12.6562 4.61328 13.75 5.24219C14.8164 5.87109 15.5 7.01953 15.5 8.25C15.5 9.50781 14.8164 10.6562 13.75 11.2852C12.6562 11.9141 11.3164 11.9141 10.25 11.2852C9.15625 10.6562 8.5 9.50781 8.5 8.25ZM7.21484 17.4375H16.7578C16.5117 15.7148 15.0352 14.375 13.2305 14.375H10.7422C8.9375 14.375 7.46094 15.7148 7.21484 17.4375ZM5.875 17.957C5.875 15.25 8.03516 13.0625 10.7422 13.0625H13.2305C15.9375 13.0625 18.125 15.25 18.125 17.957C18.125 18.3945 17.7422 18.75 17.3047 18.75H6.66797C6.23047 18.75 5.875 18.3945 5.875 17.957Z" fill="#262A37"/>
</svg>
