<svg width="16" height="16" viewBox="0 0 16 16" fill="none" xmlns="http://www.w3.org/2000/svg">
    <path d="M1.4375 7.88672L13.6875 0.886719C13.9609 0.722656 14.3438 0.722656 14.6172 0.914062C14.8906 1.10547 15.0273 1.43359 14.9727 1.76172L13.2227 13.1367C13.1406 13.6836 12.5391 14.0391 12.0195 13.8203L8.62891 12.3984L6.93359 14.4492C6.76953 14.6406 6.52344 14.75 6.25 14.75C5.75781 14.75 5.375 14.3672 5.375 13.875V11.0312L1.51953 9.44531C0.863281 9.17188 0.808594 8.24219 1.4375 7.88672ZM2.85938 8.57031L6.22266 9.96484L6.19531 9.9375L12.1836 3.23828L2.85938 8.57031ZM12.0195 12.3984L13.3047 3.94922L7.45312 10.4844L12.0195 12.3984Z" fill="#FEFEFE"/>
</svg>
